<svg width="33" height="34" viewBox="0 0 33 34" fill="none" xmlns="http://www.w3.org/2000/svg">
<path fill-rule="evenodd" clip-rule="evenodd" d="M3.32612 8.34629C3.35523 9.81916 2.55379 11.8102 1.51172 12.8503C1.03246 13.3293 0.65228 13.898 0.392893 14.524C0.133507 15.15 0 15.8209 0 16.4985C0 17.1761 0.133507 17.847 0.392893 18.473C0.65228 19.099 1.03246 19.6677 1.51172 20.1467C2.5402 21.1713 3.29701 22.9488 3.32612 24.4004C3.35329 25.685 3.85589 26.9619 4.83586 27.9399C5.73977 28.8462 6.94939 29.3825 8.22792 29.4438C9.76289 29.5214 11.7733 30.4141 12.86 31.5008C13.3389 31.9798 13.9076 32.3597 14.5333 32.6189C15.1591 32.8781 15.8299 33.0115 16.5072 33.0115C17.1846 33.0115 17.8553 32.8781 18.4811 32.6189C19.1069 32.3597 19.6755 31.9798 20.1545 31.5008C21.2412 30.4141 23.2516 29.5214 24.7865 29.4438C26.0651 29.3825 27.2747 28.8462 28.1786 27.9399C29.1212 26.9986 29.6617 25.7283 29.6864 24.3965C29.7155 22.9488 30.4626 21.183 31.4891 20.1583C32.4598 19.1908 33.0063 17.8773 33.0085 16.5067C33.0107 15.1362 32.4683 13.8209 31.5008 12.8503C30.4607 11.8121 29.6573 9.81916 29.6883 8.34823C29.7029 7.65375 29.5767 6.9635 29.3172 6.31914C29.0577 5.67478 28.6704 5.08967 28.1786 4.59911C27.6688 4.08815 27.0572 3.69019 26.3835 3.43109C25.7099 3.17198 24.9892 3.05754 24.2684 3.0952C22.8829 3.16506 21.1344 2.49363 20.1545 1.51172C19.6755 1.03246 19.1067 0.65228 18.4808 0.392893C17.8548 0.133507 17.1838 0 16.5063 0C15.8287 0 15.1577 0.133507 14.5317 0.392893C13.9058 0.65228 13.337 1.03246 12.858 1.51172C11.88 2.49169 10.1296 3.16506 8.7441 3.0952C8.02363 3.05782 7.30334 3.17239 6.63003 3.43149C5.95672 3.69058 5.34543 4.0884 4.83586 4.59911C4.34428 5.08944 3.95708 5.67423 3.69761 6.31824C3.43814 6.96225 3.31177 7.65213 3.32612 8.34629ZM22.3977 9.94918C22.6206 10.0729 22.817 10.2392 22.9755 10.4388C23.1341 10.6384 23.2518 10.8673 23.3219 11.1124C23.392 11.3574 23.4132 11.6139 23.3841 11.8672C23.355 12.1204 23.2764 12.3655 23.1526 12.5883L17.7812 22.2561C17.641 22.5186 17.4433 22.7462 17.2029 22.9217C16.8522 23.175 16.4269 23.304 15.9945 23.2882C15.5621 23.2724 15.1473 23.1127 14.816 22.8344L9.4621 18.5516C9.26308 18.3923 9.09737 18.1954 8.97444 17.9721C8.85152 17.7488 8.77378 17.5034 8.74567 17.2501C8.71756 16.9967 8.73963 16.7403 8.81061 16.4955C8.8816 16.2507 9.00011 16.0222 9.15938 15.8232C9.31865 15.6242 9.51556 15.4585 9.73888 15.3355C9.96219 15.2126 10.2075 15.1349 10.4609 15.1068C10.7142 15.0786 10.9706 15.1007 11.2155 15.1717C11.4603 15.2427 11.6887 15.3612 11.8878 15.5205L15.4836 18.3983L19.7586 10.7021C19.8824 10.4794 20.0489 10.2832 20.2486 10.1248C20.4483 9.96645 20.6772 9.84895 20.9222 9.77903C21.1673 9.70912 21.4237 9.68816 21.6769 9.71735C21.9301 9.74654 22.175 9.82532 22.3977 9.94918Z" fill="#E2E2E2"/>
</svg>
