<svg width="18" height="21" viewBox="0 0 18 21" fill="none" xmlns="http://www.w3.org/2000/svg">
<path d="M5.5625 7.5625C5.9422 7.5625 6.25 7.8703 6.25 8.25V16.5C6.25 16.8797 5.9422 17.1875 5.5625 17.1875C5.1828 17.1875 4.875 16.8797 4.875 16.5V8.25C4.875 7.8703 5.1828 7.5625 5.5625 7.5625Z" fill="black"/>
<path d="M9 7.5625C9.3797 7.5625 9.6875 7.8703 9.6875 8.25V16.5C9.6875 16.8797 9.3797 17.1875 9 17.1875C8.6203 17.1875 8.3125 16.8797 8.3125 16.5V8.25C8.3125 7.8703 8.6203 7.5625 9 7.5625Z" fill="black"/>
<path d="M13.125 8.25C13.125 7.8703 12.8172 7.5625 12.4375 7.5625C12.0578 7.5625 11.75 7.8703 11.75 8.25V16.5C11.75 16.8797 12.0578 17.1875 12.4375 17.1875C12.8172 17.1875 13.125 16.8797 13.125 16.5V8.25Z" fill="black"/>
<path d="M17.9375 4.125C17.9375 4.88439 17.3219 5.5 16.5625 5.5H15.875V17.875C15.875 19.3938 14.6438 20.625 13.125 20.625H4.875C3.35622 20.625 2.125 19.3938 2.125 17.875V5.5H1.4375C0.678109 5.5 0.0625 4.88439 0.0625 4.125V2.75C0.0625 1.99061 0.678109 1.375 1.4375 1.375H6.25C6.25 0.615609 6.86561 0 7.625 0H10.375C11.1344 0 11.75 0.615609 11.75 1.375H16.5625C17.3219 1.375 17.9375 1.99061 17.9375 2.75V4.125ZM3.6623 5.5L3.5 5.58115V17.875C3.5 18.6344 4.11561 19.25 4.875 19.25H13.125C13.8844 19.25 14.5 18.6344 14.5 17.875V5.58115L14.3377 5.5H3.6623ZM1.4375 4.125H16.5625V2.75H1.4375V4.125Z" fill="black"/>
<path d="M10.75 1.75H7.25V1.375C7.25 1.16789 7.41789 1 7.625 1H10.375C10.5821 1 10.75 1.16789 10.75 1.375V1.75Z" stroke="#2C2C2C" stroke-width="2"/>
</svg>
