<svg width="23" height="23" viewBox="0 0 23 23" fill="none" xmlns="http://www.w3.org/2000/svg">
<path d="M2.875 5.75C2.875 4.16218 4.16218 2.875 5.75 2.875H14.375C15.9628 2.875 17.25 4.16218 17.25 5.75V22.2812C17.25 22.5463 17.1041 22.7899 16.8704 22.915C16.6367 23.04 16.3531 23.0263 16.1326 22.8793L10.0625 18.8326L3.99244 22.8793C3.77189 23.0263 3.48831 23.04 3.2546 22.915C3.0209 22.7899 2.875 22.5463 2.875 22.2812V5.75ZM5.75 4.3125C4.95609 4.3125 4.3125 4.95609 4.3125 5.75V20.9383L9.66381 17.3707C9.90524 17.2098 10.2198 17.2098 10.4612 17.3707L15.8125 20.9383V5.75C15.8125 4.95609 15.1689 4.3125 14.375 4.3125H5.75Z" fill="#FF4444"/>
<path d="M6.13464 1.4375H17.25C17.3493 1.4375 17.4461 1.44756 17.5397 1.4667C18.1948 1.60075 18.6875 2.18033 18.6875 2.875V19.7909L19.0076 20.0043C19.2281 20.1513 19.5117 20.165 19.7454 20.04C19.9791 19.9149 20.125 19.6713 20.125 19.4062V2.875C20.125 1.28718 18.8378 0 17.25 0H8.62502C7.56086 0 6.63174 0.578161 6.13464 1.4375Z" fill="#FF4444"/>
</svg>
