<svg width="16" height="22" viewBox="0 0 16 22" fill="none" xmlns="http://www.w3.org/2000/svg">
<path d="M0.15918 5.77293C0.15918 4.32946 1.32934 3.15929 2.77282 3.15929H10.6137C12.0572 3.15929 13.2274 4.32946 13.2274 5.77293V20.8013C13.2274 21.0423 13.0947 21.2637 12.8823 21.3774C12.6698 21.4911 12.412 21.4787 12.2115 21.345L6.69327 17.6662L1.17503 21.345C0.974532 21.4787 0.716733 21.4911 0.504273 21.3774C0.291812 21.2637 0.15918 21.0423 0.15918 20.8013V5.77293ZM2.77282 4.46611C2.05108 4.46611 1.466 5.05119 1.466 5.77293V19.5804L6.33082 16.3372C6.5503 16.1909 6.83624 16.1909 7.05572 16.3372L11.9205 19.5804V5.77293C11.9205 5.05119 11.3355 4.46611 10.6137 4.46611H2.77282Z" fill="#2C2C2C"/>
<path d="M3.12249 1.85247H13.2274C13.3176 1.85247 13.4057 1.86161 13.4907 1.87902C14.0862 2.00088 14.5342 2.52777 14.5342 3.15929V18.5374L14.8252 18.7314C15.0257 18.865 15.2835 18.8775 15.4959 18.7638C15.7084 18.6501 15.841 18.4287 15.841 18.1877V3.15929C15.841 1.71582 14.6709 0.545654 13.2274 0.545654H5.38647C4.41906 0.545654 3.5744 1.07125 3.12249 1.85247Z" fill="#2C2C2C"/>
</svg>
