<svg width="27" height="27" viewBox="0 0 27 27" fill="none" xmlns="http://www.w3.org/2000/svg">
<path d="M10.9688 11.8125C10.5028 11.8125 10.125 12.1903 10.125 12.6562C10.125 13.1222 10.5028 13.5 10.9688 13.5H17.7188C18.1847 13.5 18.5625 13.1222 18.5625 12.6562C18.5625 12.1903 18.1847 11.8125 17.7188 11.8125H10.9688Z" fill="#2C2C2C"/>
<path d="M0.84375 1.6875C0.37776 1.6875 0 2.06526 0 2.53125C0 2.99724 0.37776 3.375 0.84375 3.375H2.71622L3.39409 6.08648L5.9207 19.5617C5.99553 19.9608 6.34398 20.25 6.75 20.25H8.4375C6.57354 20.25 5.0625 21.761 5.0625 23.625C5.0625 25.489 6.57354 27 8.4375 27C10.3015 27 11.8125 25.489 11.8125 23.625C11.8125 21.761 10.3015 20.25 8.4375 20.25H20.25C18.386 20.25 16.875 21.761 16.875 23.625C16.875 25.489 18.386 27 20.25 27C22.114 27 23.625 25.489 23.625 23.625C23.625 21.761 22.114 20.25 20.25 20.25H21.9375C22.3435 20.25 22.692 19.9608 22.7668 19.5617L25.298 6.06174C25.3443 5.81504 25.2783 5.56055 25.118 5.3674C24.9577 5.17425 24.7198 5.0625 24.4688 5.0625H4.87753L4.19356 2.32661C4.09966 1.951 3.76217 1.6875 3.375 1.6875H0.84375ZM7.45025 18.5625L5.23541 6.75H23.4521L21.2373 18.5625H7.45025ZM10.125 23.625C10.125 24.557 9.36948 25.3125 8.4375 25.3125C7.50552 25.3125 6.75 24.557 6.75 23.625C6.75 22.693 7.50552 21.9375 8.4375 21.9375C9.36948 21.9375 10.125 22.693 10.125 23.625ZM21.9375 23.625C21.9375 24.557 21.182 25.3125 20.25 25.3125C19.318 25.3125 18.5625 24.557 18.5625 23.625C18.5625 22.693 19.318 21.9375 20.25 21.9375C21.182 21.9375 21.9375 22.693 21.9375 23.625Z" fill="#2C2C2C"/>
</svg>
