<svg width="18" height="14" viewBox="0 0 18 14" fill="none" xmlns="http://www.w3.org/2000/svg">
<path d="M17.4211 0.624898C17.7451 0.936499 17.9342 1.36624 17.9468 1.81964C17.9594 2.27304 17.7945 2.71298 17.4884 3.04272L7.95921 13.3071C7.80477 13.4731 7.61918 13.606 7.41341 13.6979C7.20764 13.7897 6.98585 13.8387 6.76116 13.8419C6.53647 13.8451 6.31343 13.8024 6.10521 13.7164C5.897 13.6305 5.70784 13.5029 5.5489 13.3413L0.504061 8.20911C0.207021 7.88481 0.0453098 7.45588 0.0529964 7.01269C0.0606829 6.5695 0.237167 6.14664 0.545268 5.8332C0.853369 5.51977 1.26903 5.34023 1.70468 5.33241C2.14034 5.32459 2.56196 5.4891 2.88074 5.79128L6.70361 9.67805L15.0444 0.693327C15.3507 0.363721 15.7731 0.171354 16.2188 0.158522C16.6645 0.14569 17.097 0.313444 17.4211 0.624898Z" fill="#F8F8F8"/>
</svg>
