<svg width="93" height="93" viewBox="0 0 93 93" fill="none" xmlns="http://www.w3.org/2000/svg">
<path d="M64.2066 34.7426C64.2066 44.2793 56.4756 52.0103 46.9389 52.0103C37.4022 52.0103 29.6711 44.2793 29.6711 34.7426C29.6711 25.2059 37.4022 17.4749 46.9389 17.4749C56.4756 17.4749 64.2066 25.2059 64.2066 34.7426Z" fill="#6C6C6C"/>
<path fill-rule="evenodd" clip-rule="evenodd" d="M0.891602 46.2544C0.891602 20.8232 21.5077 0.207153 46.9389 0.207153C72.37 0.207153 92.9861 20.8232 92.9861 46.2544C92.9861 71.6856 72.37 92.3017 46.9389 92.3017C21.5077 92.3017 0.891602 71.6856 0.891602 46.2544ZM46.9389 5.96306C24.6866 5.96306 6.64751 24.0021 6.64751 46.2544C6.64751 55.7714 9.94712 64.5177 15.4648 71.4117C19.5576 64.8186 28.5466 57.7662 46.9389 57.7662C65.3311 57.7662 74.3201 64.8186 78.413 71.4118C83.9306 64.5177 87.2302 55.7714 87.2302 46.2544C87.2302 24.0021 69.1911 5.96306 46.9389 5.96306Z" fill="#6C6C6C"/>
</svg>
