<svg width="14" height="23" viewBox="0 0 14 23" fill="none" xmlns="http://www.w3.org/2000/svg">
<path d="M3.31157 0.688431C2.58721 -0.0359287 1.41279 -0.0359287 0.688431 0.688431C-0.0359287 1.41279 -0.0359287 2.58721 0.688431 3.31157L3.31157 0.688431ZM11.2742 11.2742L12.5858 12.5858C13.3101 11.8614 13.3101 10.687 12.5858 9.96262L11.2742 11.2742ZM0.688431 19.2368C-0.0359287 19.9612 -0.0359287 21.1356 0.688431 21.86C1.41279 22.5843 2.58721 22.5843 3.31157 21.86L0.688431 19.2368ZM0.688431 3.31157L9.96262 12.5858L12.5858 9.96262L3.31157 0.688431L0.688431 3.31157ZM9.96262 9.96262L0.688431 19.2368L3.31157 21.86L12.5858 12.5858L9.96262 9.96262Z" fill="#FF4444"/>
</svg>
